<svg width="64" height="64" viewBox="0 0 64 64" fill="none" xmlns="http://www.w3.org/2000/svg">
<g clip-path="url(#clip0_75_227)">
<path d="M56.865 13.16L35.875 1.04C33.475 -0.350002 30.515 -0.350002 28.115 1.04L7.125 13.16C4.725 14.55 3.245 17.11 3.245 19.88V44.12C3.245 46.89 4.725 49.46 7.125 50.84L28.115 62.96C30.515 64.35 33.475 64.35 35.875 62.96L56.865 50.84C59.265 49.45 60.745 46.89 60.745 44.12V19.88C60.745 17.11 59.265 14.54 56.865 13.16V13.16Z" fill="#040000"/>
<path d="M30.325 46.87H34.895L36.355 42.6H31.825C31.825 42.6 30.585 46.14 30.325 46.87V46.87Z" fill="#00FFFF"/>
<path d="M10.315 17.14V23.1H45.525L37.185 46.85H43.545L53.695 17.14H10.315Z" fill="#E9474D"/>
<path d="M28.875 31.92C28.925 31.86 29.015 31.75 29.105 31.63C31.055 29.07 31.655 26.24 30.595 23.19C30.585 23.16 30.575 23.13 30.565 23.1H19.755C20.745 23.1 21.595 23.1 22.175 23.11C24.485 23.13 25.865 25.5 24.755 27.53C24.135 28.66 23.115 29.05 21.885 29.05C19.475 29.05 14.115 29.05 14.115 29.05V34.99C14.115 34.99 19.595 34.98 22.075 34.99C24.505 35.01 25.925 37.44 24.715 39.49C24.095 40.54 23.115 40.92 21.925 40.92C18.235 40.91 10.315 40.92 10.315 40.92V46.87C10.315 46.87 18.355 46.87 22.175 46.87C23.595 46.87 24.935 46.53 26.205 45.9C30.375 43.82 32.245 38.7 30.335 34.45C29.945 33.58 29.375 32.79 28.875 31.92V31.92Z" fill="#00FFFF"/>
<path d="M21.915 17.14C18.205 17.14 10.305 17.14 10.305 17.14V23.1H12.845C14.835 23.1 17.625 23.1 19.765 23.1H30.575C29.225 19.36 25.945 17.15 21.925 17.14H21.915Z" fill="#FAE6E6"/>
</g>
<defs>
<clipPath id="clip0_75_227">
<rect width="57.51" height="64" fill="white" transform="translate(3.245)"/>
</clipPath>
</defs>
</svg>
